<svg xmlns="http://www.w3.org/2000/svg" viewBox="0 0 46 46"><defs><style>.cls-1{fill:#fff;}.cls-2{fill:#00b3ff;}</style></defs><g id="Layer_2" data-name="Layer 2"><g id="Layer_1-2" data-name="Layer 1"><g id="plan-card-nav"><circle id="Ellipse_3" data-name="Ellipse 3" class="cls-1" cx="23" cy="23" r="23"/></g><path class="cls-2" d="M21.07,24.57h0a1.74,1.74,0,0,0-.69-.28l1.07-1.18a.92.92,0,0,0,.19-.25.71.71,0,0,0,.08-.31.69.69,0,0,0-.19-.51.75.75,0,0,0-.54-.21H18.1a.67.67,0,0,0,0,1.33h1.58L18.4,24.52a1.51,1.51,0,0,0-.18.26.66.66,0,0,0-.07.3.74.74,0,0,0,.15.45.55.55,0,0,0,.45.21,2,2,0,0,0,.34,0l.25-.08a1.43,1.43,0,0,1,.29,0h0a1.13,1.13,0,0,1,.44.1.82.82,0,0,1,.33.31.91.91,0,0,1,.12.52,1,1,0,0,1-.14.57,1.19,1.19,0,0,1-.38.36.91.91,0,0,1-.48.13h0a1.24,1.24,0,0,1-.46-.08,2.43,2.43,0,0,1-.35-.2.94.94,0,0,0-.26-.14l-.23,0a.62.62,0,0,0-.5.25.78.78,0,0,0-.19.51.63.63,0,0,0,.09.33.79.79,0,0,0,.33.3,2.48,2.48,0,0,0,.62.24,3,3,0,0,0,.73.09h.06a3.16,3.16,0,0,0,1.32-.28,2.21,2.21,0,0,0,.94-.85,2.5,2.5,0,0,0,.1-2.33A2,2,0,0,0,21.07,24.57Z"/><path class="cls-2" d="M25.4,21.84a.94.94,0,0,0-.49.1l-1.42.85a.68.68,0,0,0-.37.62.71.71,0,0,0,.19.49.66.66,0,0,0,.51.23.67.67,0,0,0,.39-.1l.36-.22V28a.72.72,0,0,0,.72.72h.06a.77.77,0,0,0,.52-.2.67.67,0,0,0,.22-.52V22.56a.69.69,0,0,0-.19-.51A.62.62,0,0,0,25.4,21.84Z"/><path class="cls-2" d="M36,31.42h-2.8V28.63a.82.82,0,0,0-1.64,0v2.79H28.74a.82.82,0,0,0,0,1.64h2.79v2.8a.82.82,0,0,0,1.64,0v-2.8H36a.82.82,0,0,0,0-1.64Z"/><path class="cls-2" d="M26.15,31.53H15.4a2.93,2.93,0,0,1-2.93-2.93v-9H31.53V26a.73.73,0,0,0,.73.73h0A.73.73,0,0,0,33,26V17.69a4.4,4.4,0,0,0-4.4-4.4H27.5V11.74a.74.74,0,1,0-1.47,0v1.55H18V11.74a.74.74,0,1,0-1.47,0v1.55H15.4a4.4,4.4,0,0,0-4.4,4.4V28.6A4.4,4.4,0,0,0,15.4,33H26.15a.74.74,0,0,0,.74-.74h0A.74.74,0,0,0,26.15,31.53ZM12.47,17.69a2.93,2.93,0,0,1,2.93-2.93h1.1v1.55a.74.74,0,0,0,1.47,0V14.76H26v1.55a.74.74,0,0,0,1.47,0V14.76h1.1a2.93,2.93,0,0,1,2.93,2.93v.45H12.47Z"/></g></g></svg>