<svg xmlns="http://www.w3.org/2000/svg" viewBox="0 0 30 30"><defs><style>.cls-1{fill:#9dadbc;}</style></defs><g id="Layer_2" data-name="Layer 2"><g id="Layer_1-2" data-name="Layer 1"><path class="cls-1" d="M22,0H8A8,8,0,0,0,0,8V22a8,8,0,0,0,8,8H22a8,8,0,0,0,8-8V8A8,8,0,0,0,22,0Zm6,22a6,6,0,0,1-6,6H8a6,6,0,0,1-6-6V8A6,6,0,0,1,8,2H22a6,6,0,0,1,6,6Z"/><path class="cls-1" d="M23.22,5.78H6.78a1,1,0,0,0,0,2H23.22a1,1,0,0,0,0-2Z"/><path class="cls-1" d="M14,16.83a2.6,2.6,0,0,0-1.45-.46l2-2.24a1.62,1.62,0,0,0,.26-.34.75.75,0,0,0,.1-.38.92.92,0,0,0-.24-.65.9.9,0,0,0-.7-.26H9.42a.81.81,0,0,0-.6.24.77.77,0,0,0-.24.58.82.82,0,0,0,.84.84h3l-2.34,2.56a2.15,2.15,0,0,0-.25.36.89.89,0,0,0-.08.38.87.87,0,0,0,.19.57.63.63,0,0,0,.53.24,1.39,1.39,0,0,0,.48-.07l.42-.13a2.15,2.15,0,0,1,.55-.06,1.82,1.82,0,0,1,.83.2,1.61,1.61,0,0,1,.62.57,1.86,1.86,0,0,1,.23.95,1.92,1.92,0,0,1-.27,1,1.82,1.82,0,0,1-.69.66,1.74,1.74,0,0,1-.88.24,2.07,2.07,0,0,1-.82-.15,3.6,3.6,0,0,1-.62-.35A1.17,1.17,0,0,0,10,21a1.1,1.1,0,0,0-.29,0,.78.78,0,0,0-.63.31,1,1,0,0,0-.25.66.93.93,0,0,0,.11.41,1.06,1.06,0,0,0,.45.4,4,4,0,0,0,.93.37,4.61,4.61,0,0,0,1.11.13,4.68,4.68,0,0,0,2.11-.44,3.27,3.27,0,0,0,1.4-1.25,3.65,3.65,0,0,0,.5-1.93A3.69,3.69,0,0,0,15.05,18,3.09,3.09,0,0,0,14,16.83Z"/><path class="cls-1" d="M20.53,12.5a1.39,1.39,0,0,0-.65.14L17.6,14a.85.85,0,0,0-.46.78.94.94,0,0,0,.25.63.81.81,0,0,0,.65.29.91.91,0,0,0,.48-.13l.94-.57v7.15a.9.9,0,0,0,.27.66,1,1,0,0,0,.7.26,1,1,0,0,0,.71-.26.87.87,0,0,0,.28-.66V13.43a.89.89,0,0,0-.25-.66A.82.82,0,0,0,20.53,12.5Z"/></g></g></svg>