<svg xmlns="http://www.w3.org/2000/svg" viewBox="0 0 30 30"><defs><style>.cls-1{fill:#fff;}</style></defs><g id="Layer_2" data-name="Layer 2"><g id="Layer_1-2" data-name="Layer 1"><path class="cls-1" d="M15,0A15,15,0,0,0,0,15H0a15,15,0,0,0,30,0h0A15,15,0,0,0,15,0Zm0,28A13,13,0,1,1,28,15,13,13,0,0,1,15,28Z"/><path class="cls-1" d="M21.27,8.73a1,1,0,0,0-1.41,0L15,13.59,10.14,8.73a1,1,0,0,0-1.41,1.41L13.59,15,8.73,19.86a1,1,0,0,0,0,1.41,1,1,0,0,0,.71.29,1,1,0,0,0,.7-.29L15,16.41l4.86,4.86a1,1,0,0,0,.7.29,1,1,0,0,0,.71-.29,1,1,0,0,0,0-1.41L16.41,15l4.86-4.86A1,1,0,0,0,21.27,8.73Z"/></g></g></svg>