<svg xmlns="http://www.w3.org/2000/svg" width="30.023" height="30.031" viewBox="0 0 30.023 30.031">
  <g id="chat" transform="translate(-1148.001 -368)">
    <g id="Path_29" data-name="Path 29" transform="translate(662.862 332.878)" fill="none" stroke-miterlimit="10">
      <path d="M515.093,62.663l-1.559-5.817a15.033,15.033,0,1,0-6.684,6.678l5.823,1.56A1.977,1.977,0,0,0,515.093,62.663Z" stroke="none"/>
      <path d="M 513.1506958007812 63.14144897460938 L 511.6021728515625 57.36375045776367 L 511.4049682617188 56.62791061401367 L 511.7472534179688 55.94733810424805 C 512.6707153320312 54.11127853393555 513.1389770507812 52.15134811401367 513.1389770507812 50.12199783325195 C 513.1389770507812 46.64970016479492 511.7867126464844 43.38515090942383 509.3312683105469 40.92971038818359 C 506.8758544921875 38.47426986694336 503.6112976074219 37.12199783325195 500.1390075683594 37.12199783325195 C 496.6667175292969 37.12199783325195 493.4021606445312 38.47426986694336 490.9467163085938 40.92971038818359 C 488.4912719726562 43.38515853881836 487.1390075683594 46.64970779418945 487.1390075683594 50.12199783325195 C 487.1390075683594 53.59465026855469 488.4912719726562 56.85931777954102 490.9466857910156 59.31462860107422 C 493.4020080566406 61.76984786987305 496.6665954589844 63.12199783325195 500.1390075683594 63.12199783325195 C 502.1644592285156 63.12199783325195 504.12060546875 62.65581130981445 505.9530944824219 61.73638916015625 L 506.6329040527344 61.39530944824219 L 507.3675537109375 61.59212875366211 L 513.1506958007812 63.14144897460938 M 513.1927490234375 65.15322875976562 C 513.0231323242188 65.15321350097656 512.848876953125 65.13106536865234 512.6729736328125 65.08399963378906 L 506.8500061035156 63.52399826049805 C 504.8290100097656 64.53800201416016 502.5539855957031 65.12200164794922 500.1390075683594 65.12200164794922 C 491.8550109863281 65.12200164794922 485.1390075683594 58.40699768066406 485.1390075683594 50.12199783325195 C 485.1390075683594 41.8380012512207 491.8550109863281 35.12199783325195 500.1390075683594 35.12199783325195 C 508.4230041503906 35.12199783325195 515.1389770507812 41.8380012512207 515.1389770507812 50.12199783325195 C 515.1389770507812 52.54299926757812 514.552001953125 54.82199859619141 513.5339965820312 56.84600067138672 L 515.093017578125 62.66299819946289 C 515.4398193359375 63.95696640014648 514.4393310546875 65.15330505371094 513.1927490234375 65.15322875976562 Z" stroke="none" fill="#8c98ba"/>
    </g>
    <circle id="Ellipse_31" data-name="Ellipse 31" cx="1" cy="1" r="1" transform="translate(1157.95 382.016)" fill="#8c98ba"/>
    <circle id="Ellipse_32" data-name="Ellipse 32" cx="1" cy="1" r="1" transform="translate(1166.076 382.016)" fill="#8c98ba"/>
    <circle id="Ellipse_33" data-name="Ellipse 33" cx="1" cy="1" r="1" transform="translate(1162.013 382.016)" fill="#8c98ba"/>
  </g>
</svg>
