<svg xmlns="http://www.w3.org/2000/svg" viewBox="0 0 258.94 307.42"><g id="Layer_2" data-name="Layer 2"><g id="Layer_1-2" data-name="Layer 1"><path d="M162.69,48.48H48.38A48.51,48.51,0,0,0,0,96.85V259a48.51,48.51,0,0,0,48.38,48.38H162.69A48.51,48.51,0,0,0,211.06,259V96.85A48.5,48.5,0,0,0,162.69,48.48ZM24.94,96.85A23.51,23.51,0,0,1,48.38,73.41H162.69a23.51,23.51,0,0,1,23.44,23.44V259a23.51,23.51,0,0,1-23.44,23.44H48.38A23.5,23.5,0,0,1,24.94,259Z"/><path  d="M210.57,0H77.7a12.47,12.47,0,1,0,0,24.94H210.56A23.51,23.51,0,0,1,234,48.38V229.12a12.47,12.47,0,1,0,24.93,0V48.38A48.51,48.51,0,0,0,210.57,0Z"/></g></g></svg>
