<svg xmlns="http://www.w3.org/2000/svg" viewBox="0 0 30 30"><defs><style>.cls-1{fill:#f94747;}</style></defs><g id="Layer_2" data-name="Layer 2"><g id="Layer_1-2" data-name="Layer 1"><path class="cls-1" d="M15,0A15,15,0,0,0,0,15H0a15,15,0,0,0,30,0h0A15,15,0,0,0,15,0Zm0,28A13,13,0,1,1,28,15,13,13,0,0,1,15,28Z"/><path class="cls-1" d="M19.8,10.2a1,1,0,0,0-1.41,0L15,13.59,11.61,10.2a1,1,0,0,0-1.41,1.41L13.59,15,10.2,18.39a1,1,0,0,0,0,1.41,1,1,0,0,0,1.41,0L15,16.41l3.39,3.39a1,1,0,0,0,1.41,0,1,1,0,0,0,0-1.41L16.41,15l3.39-3.39A1,1,0,0,0,19.8,10.2Z"/></g></g></svg>