<svg xmlns="http://www.w3.org/2000/svg" xmlns:xlink="http://www.w3.org/1999/xlink" viewBox="0 0 90.16 58.01"><defs><style>.cls-1{fill:url(#radial-gradient);}</style><radialGradient id="radial-gradient" cx="-18.85" cy="-19.69" r="150.35" gradientUnits="userSpaceOnUse"><stop offset="0" stop-color="#16d3ff"/><stop offset="1" stop-color="#9727ff"/></radialGradient></defs><g id="Layer_2" data-name="Layer 2"><g id="Layer_1-2" data-name="Layer 1"><path class="cls-1" d="M82.28,6.44Q75.59,0,64.74,0A26.42,26.42,0,0,0,53.89,2.09,21,21,0,0,0,46,8c-.32.39-.63.8-.93,1.21a22.45,22.45,0,0,0-2.37-2.78Q36.06,0,25.19,0A26.28,26.28,0,0,0,14.37,2.09,21.26,21.26,0,0,0,6.46,8a26.34,26.34,0,0,0-4.82,9.14A40.26,40.26,0,0,0,0,29,40.48,40.48,0,0,0,1.64,40.84,25.69,25.69,0,0,0,6.51,50a22.28,22.28,0,0,0,7.86,5.87A26.32,26.32,0,0,0,25.19,58,27.57,27.57,0,0,0,36,56,21.47,21.47,0,0,0,44,50.13c.38-.46.74-.93,1.09-1.41.32.44.65.87,1,1.29A22.06,22.06,0,0,0,54,55.87,26.44,26.44,0,0,0,64.74,58a27.46,27.46,0,0,0,10.85-2.07,21.55,21.55,0,0,0,8-5.81A26.15,26.15,0,0,0,88.47,41a39.35,39.35,0,0,0,1.69-12Q90.16,14.34,82.28,6.44ZM31.43,40.93c-1,2.81-3.17,4.22-6.4,4.22A6.52,6.52,0,0,1,21.11,44a7.12,7.12,0,0,1-2.32-3.34,21.81,21.81,0,0,1-1.1-5.59c-.18-2.23-.27-4.87-.27-7.94a42.53,42.53,0,0,1,.33-5.53A16.2,16.2,0,0,1,19,17.06a8,8,0,0,1,2.41-3,6.17,6.17,0,0,1,3.92-1.15A6,6,0,0,1,31.47,17Q33,21.05,33,29T31.43,40.93ZM71,41c-1,2.8-3.17,4.21-6.4,4.22A6.49,6.49,0,0,1,60.67,44a6.94,6.94,0,0,1-2.32-3.34,21.81,21.81,0,0,1-1.1-5.59c-.19-2.23-.28-4.87-.28-7.94a42.53,42.53,0,0,1,.33-5.53,16.29,16.29,0,0,1,1.21-4.55,7.91,7.91,0,0,1,2.38-3,6.15,6.15,0,0,1,3.91-1.15A6,6,0,0,1,71,17q1.55,4.08,1.55,12T71,41Z"/></g></g></svg>