<svg xmlns="http://www.w3.org/2000/svg" xmlns:xlink="http://www.w3.org/1999/xlink" viewBox="0 0 31.09 31.71"><defs><style>.cls-1{fill:url(#linear-gradient);}.cls-2{fill:url(#linear-gradient-2);}</style><linearGradient id="linear-gradient" x1="15.54" y1="31.71" x2="15.54" gradientUnits="userSpaceOnUse"><stop offset="0" stop-color="#fd5900"/><stop offset="1" stop-color="#ffde00"/></linearGradient><linearGradient id="linear-gradient-2" x1="15.55" y1="5.65" x2="15.55" y2="26.07" gradientTransform="translate(-0.08 0.05) rotate(-0.2)" gradientUnits="userSpaceOnUse"><stop offset="0" stop-color="#ffe59a"/><stop offset="1" stop-color="#ffffd5"/></linearGradient></defs><g id="Layer_2" data-name="Layer 2"><g id="Layer_1-2" data-name="Layer 1"><path class="cls-1" d="M29.79,21.24l-.82.6a.92.92,0,0,0-.37.78l0,1A3.22,3.22,0,0,1,26,26.89l-.52.1,0,0-.44.1a.88.88,0,0,0-.67.52l-.41,1a3.2,3.2,0,0,1-2.92,1.91,3.29,3.29,0,0,1-.82-.1l-1-.26a.92.92,0,0,0-.84.2l-.77.66a1.63,1.63,0,0,1-.22.17l0,.05-.06,0a3.18,3.18,0,0,1-1.86.59,3,3,0,0,1-1.85-.59h0a1,1,0,0,1-.2-.16l-.77-.65a.93.93,0,0,0-.84-.2l-1,.28a3.2,3.2,0,0,1-3.75-1.8l-.41-.93a1,1,0,0,0-.68-.54L5.58,27l0,0V27L5,26.89a3.21,3.21,0,0,1-2.6-3.25l0-1a1,1,0,0,0-.37-.78l-.82-.6a3.21,3.21,0,0,1-.93-4.06l.48-.89a1,1,0,0,0,0-.87l-.48-.89a3.21,3.21,0,0,1,.93-4.06l.82-.61a.93.93,0,0,0,.37-.77l0-1A3.22,3.22,0,0,1,5,4.82l1-.19a.9.9,0,0,0,.67-.54l.41-.93a3.21,3.21,0,0,1,3.75-1.81l1,.27a.92.92,0,0,0,.84-.19l.77-.66a3.19,3.19,0,0,1,4.16,0l.77.66a.92.92,0,0,0,.84.19l1-.27A3.21,3.21,0,0,1,24,3.16l.41.93a.9.9,0,0,0,.67.54l1,.19a3.23,3.23,0,0,1,2.6,3.25l0,1a.88.88,0,0,0,.37.77l.82.61a3.2,3.2,0,0,1,.92,4.06l-.47.89a1,1,0,0,0,0,.87l.48.89A3.21,3.21,0,0,1,29.79,21.24Z"/><path class="cls-2" d="M15.48,5.65A10.21,10.21,0,1,0,25.72,15.82,10.22,10.22,0,0,0,15.48,5.65Zm5.14,9.61L18.9,16.94l.41,2.38a1.13,1.13,0,0,1-.45,1.11,1.16,1.16,0,0,1-1.19.1L15.53,19.4,13.4,20.54a1.15,1.15,0,0,1-1.2-.09,1.12,1.12,0,0,1-.45-1.11l.4-2.38-1.74-1.67a1.15,1.15,0,0,1-.29-1.17,1.13,1.13,0,0,1,.91-.77L13.42,13l1.06-2.17a1.14,1.14,0,0,1,2,0L17.59,13l2.39.34a1.12,1.12,0,0,1,.92.76A1.15,1.15,0,0,1,20.62,15.26Z"/></g></g></svg>