<svg xmlns="http://www.w3.org/2000/svg" width="30.047" height="30.124" viewBox="0 0 30.047 30.124">
  <g id="home" transform="translate(-1057.977 -367.892)">
    <circle id="Ellipse_12" data-name="Ellipse 12" cx="2" cy="2" r="2" transform="translate(1071.001 380.657)" fill="none" stroke="#8c98ba" stroke-miterlimit="10" stroke-width="2"/>
    <path id="Path_4" data-name="Path 4" d="M400.139,49.779h-3.1a.9.9,0,0,1-.618-1.55l12.637-11.668a1.591,1.591,0,0,1,2.159,0l12.64,11.67a.9.9,0,0,1-.618,1.55h-3.1V60.753a3.385,3.385,0,0,1-3.385,3.385h-13.23a3.385,3.385,0,0,1-3.385-3.385Z" transform="translate(662.862 332.878)" fill="none" stroke="#8c98ba" stroke-miterlimit="10" stroke-width="2"/>
    <rect id="Rectangle_10" data-name="Rectangle 10" width="30" height="30" transform="translate(1057.998 368.016)" fill="none"/>
  </g>
</svg>
