<svg xmlns="http://www.w3.org/2000/svg" viewBox="0 0 30 30"><defs><style>.cls-1{fill:#9dadbc;}</style></defs><g id="Layer_2" data-name="Layer 2"><g id="Layer_1-2" data-name="Layer 1"><path class="cls-1" d="M15,0A15,15,0,0,0,0,15H0a15,15,0,0,0,30,0h0A15,15,0,0,0,15,0Zm0,28A13,13,0,1,1,28,15,13,13,0,0,1,15,28Z"/><path class="cls-1" d="M14.31,8.72a1.43,1.43,0,1,0,1.42,1.43,1.43,1.43,0,0,0-1.42-1.43Z"/><path class="cls-1" d="M17.69,22.28H15.44a2.14,2.14,0,0,1-2.13-2.14v-5h-.43a1,1,0,0,1,0-2h1.26a1.18,1.18,0,0,1,1.17,1.17v5.85a.13.13,0,0,0,.13.14h2.25a1,1,0,0,1,0,2Zm-3.55-7.16h0Z"/></g></g></svg>