<svg xmlns="http://www.w3.org/2000/svg" viewBox="0 0 33.15 33.16"><defs><style>.cls-1{fill:#f94747;}</style></defs><g id="Layer_2" data-name="Layer 2"><g id="Layer_1-2" data-name="Layer 1"><path class="cls-1" d="M25.62,30.16H7.53A4.54,4.54,0,0,1,3,25.62V7.53A4.53,4.53,0,0,1,7.53,3H25.62a1.5,1.5,0,0,0,0-3H7.53A7.54,7.54,0,0,0,0,7.53V25.62a7.54,7.54,0,0,0,7.53,7.54H25.62a1.5,1.5,0,0,0,0-3Z"/><path class="cls-1" d="M32.61,15.27,27.55,10.2a1.5,1.5,0,1,0-2.13,2.12l2.82,2.82h-16a1.5,1.5,0,0,0,0,3H28.13l-2.71,2.69a1.51,1.51,0,0,0,1.06,2.57A1.49,1.49,0,0,0,27.54,23l5.08-5.07A1.87,1.87,0,0,0,32.61,15.27Z"/></g></g></svg>