<svg xmlns="http://www.w3.org/2000/svg" width="24.853" height="30" viewBox="0 0 24.853 30">
  <g id="Path_48" data-name="Path 48" transform="translate(-397.745 -125.137)" fill="none" stroke-linecap="round" stroke-miterlimit="10">
    <path d="M418.959,128.777a12.426,12.426,0,1,0-17.574,17.573l8.787,8.787,8.787-8.787A12.427,12.427,0,0,0,418.959,128.777ZM413.707,141.1a5,5,0,1,1,0-7.071A5,5,0,0,1,413.707,141.1Z" stroke="none"/>
    <path d="M 410.1719970703125 127.1372528076172 C 407.386962890625 127.1372528076172 404.7685852050781 128.2218322753906 402.7992248535156 130.1912078857422 C 400.829833984375 132.1605987548828 399.7452697753906 134.7787780761719 399.7452697753906 137.5634918212891 C 399.7452697753906 140.3482055664062 400.829833984375 142.9664001464844 402.7992248535156 144.935791015625 L 410.1719970703125 152.3085632324219 L 417.5446472167969 144.9359436035156 C 419.5136413574219 142.9665374755859 420.5980224609375 140.3482971191406 420.5980224609375 137.5634918212891 C 420.5980224609375 134.7787017822266 419.5136413574219 132.1604461669922 417.5448303222656 130.1912078857422 C 415.5754089355469 128.2218322753906 412.95703125 127.1372528076172 410.1719970703125 127.1372528076172 M 410.171875 144.5637512207031 C 408.3020629882812 144.5637512207031 406.5440673828125 143.8355255126953 405.2214050292969 142.5128479003906 C 402.4937438964844 139.7837677001953 402.4937438964844 135.3432159423828 405.2217712402344 132.6137847900391 C 406.5440673828125 131.2914733886719 408.3020629882812 130.5632476806641 410.171875 130.5632476806641 C 412.0418701171875 130.5632476806641 413.7997131347656 131.2915954589844 415.1212158203125 132.6137847900391 C 417.8504943847656 135.3430633544922 417.8504943847656 139.7839202880859 415.12158203125 142.5128479003906 C 413.7997131347656 143.8353881835938 412.0418701171875 144.5637512207031 410.171875 144.5637512207031 M 410.1719970703125 125.1372528076172 C 413.3522644042969 125.1372528076172 416.5325012207031 126.3505096435547 418.9590148925781 128.7769927978516 C 423.8110046386719 133.6300048828125 423.8110046386719 141.4969940185547 418.9590148925781 146.3500061035156 L 410.1719970703125 155.1369934082031 L 401.385009765625 146.3500061035156 C 396.5320129394531 141.4969940185547 396.5320129394531 133.6300048828125 401.385009765625 128.7769927978516 C 403.8115234375 126.3505096435547 406.9917602539062 125.1372528076172 410.1719970703125 125.1372528076172 Z M 410.171875 142.5637512207031 C 411.4515075683594 142.5637512207031 412.7310180664062 142.0755004882812 413.7070007324219 141.0989990234375 C 415.6600036621094 139.14599609375 415.6600036621094 135.9810028076172 413.7070007324219 134.0279998779297 C 412.7310180664062 133.0514984130859 411.4515075683594 132.5632476806641 410.171875 132.5632476806641 C 408.8922424316406 132.5632476806641 407.6124877929688 133.0514984130859 406.635986328125 134.0279998779297 C 404.6839904785156 135.9810028076172 404.6839904785156 139.14599609375 406.635986328125 141.0989990234375 C 407.6124877929688 142.0755004882812 408.8922424316406 142.5637512207031 410.171875 142.5637512207031 Z" stroke="none" fill="#8c98ba"/>
  </g>
</svg>
