<svg xmlns="http://www.w3.org/2000/svg" xmlns:xlink="http://www.w3.org/1999/xlink" width="46" height="46" viewBox="0 0 46 46">
  <defs>
    <radialGradient id="radial-gradient" cx="-0.178" cy="0.12" r="1.908" gradientTransform="translate(0.037 0.108) rotate(30.813)" gradientUnits="objectBoundingBox">
      <stop offset="0" stop-color="#d421ff"/>
      <stop offset="1" stop-color="#6127ff"/>
    </radialGradient>
  </defs>
  <g id="plan-card-cal" transform="translate(-1318 -571)">
    <g id="Group_65" data-name="Group 65" transform="translate(339 180)">
      <circle id="Ellipse_3" data-name="Ellipse 3" cx="23" cy="23" r="23" transform="translate(979 391)" fill="url(#radial-gradient)"/>
    </g>
    <g id="Layer_1" data-name="Layer 1" transform="translate(1329 582)">
      <path id="Path_6" data-name="Path 6" d="M18.706,2.432H17.537V.779a.78.78,0,0,0-1.559,0V2.432H7.4V.779a.779.779,0,1,0-1.559,0V2.432H4.677A4.677,4.677,0,0,0,0,7.108v11.6a4.677,4.677,0,0,0,4.677,4.677h14.03a4.677,4.677,0,0,0,4.677-4.677V7.108a4.677,4.677,0,0,0-4.677-4.676ZM4.677,3.991H5.846V5.635a.78.78,0,0,0,1.559,0V3.991h8.574V5.635a.78.78,0,1,0,1.559,0V3.991h1.169a3.118,3.118,0,0,1,3.118,3.118v.475H1.559V7.108A3.118,3.118,0,0,1,4.677,3.991Zm14.03,17.833H4.677a3.118,3.118,0,0,1-3.118-3.118V9.143H21.824v9.564a3.118,3.118,0,0,1-3.118,3.117Z" fill="#fff"/>
      <path id="Path_7" data-name="Path 7" d="M12.634,17.687h0a1.988,1.988,0,0,0-.733-.3l1.138-1.255a1.091,1.091,0,0,0,.2-.265.7.7,0,0,0,.086-.32.725.725,0,0,0-.779-.772H9.485a.706.706,0,1,0-.055,1.411h1.684L9.789,17.625A2.112,2.112,0,0,0,9.6,17.9a.779.779,0,0,0,.094.779.553.553,0,0,0,.475.218,1.426,1.426,0,0,0,.335-.047l.273-.078a1.247,1.247,0,0,1,.3-.039,1.115,1.115,0,0,1,.5.117.779.779,0,0,1,.351.32,1.021,1.021,0,0,1,.133.553,1.107,1.107,0,0,1-.156.608,1.192,1.192,0,0,1-.4.382.974.974,0,0,1-.507.14h0a1.27,1.27,0,0,1-.483-.094,1.769,1.769,0,0,1-.374-.21.959.959,0,0,0-.281-.148,1.13,1.13,0,0,0-.234-.039h0a.655.655,0,0,0-.53.265.779.779,0,0,0-.2.546.725.725,0,0,0,.1.351.779.779,0,0,0,.351.32,2.541,2.541,0,0,0,.663.257,3.118,3.118,0,0,0,.779.094h.07a3.344,3.344,0,0,0,1.4-.3,2.377,2.377,0,0,0,1-.9,2.549,2.549,0,0,0,.359-1.364,2.408,2.408,0,0,0-.249-1.115,2.128,2.128,0,0,0-.74-.826Z" transform="translate(-1.932 -3.26)" fill="#fff"/>
      <path id="Path_8" data-name="Path 8" d="M18.937,14.78a1,1,0,0,0-.514.109l-1.535.9a.717.717,0,0,0-.4.663.779.779,0,0,0,.2.514.7.7,0,0,0,.538.249.779.779,0,0,0,.413-.117l.39-.226V21.35a.725.725,0,0,0,.226.546.779.779,0,0,0,.538.226h.062a.779.779,0,0,0,.553-.218.717.717,0,0,0,.234-.553v-5.8a.779.779,0,0,0-.2-.546.655.655,0,0,0-.507-.226Z" transform="translate(-3.637 -3.26)" fill="#fff"/>
    </g>
  </g>
</svg>
