<svg xmlns="http://www.w3.org/2000/svg" xmlns:xlink="http://www.w3.org/1999/xlink" width="44" height="44" viewBox="0 0 44 44">
  <defs>
    <radialGradient id="radial-gradient" cx="-0.178" cy="0.12" r="1.908" gradientTransform="translate(0.037 0.108) rotate(30.813)" gradientUnits="objectBoundingBox">
      <stop offset="0" stop-color="#ffee21"/>
      <stop offset="1" stop-color="#ff2f27"/>
    </radialGradient>
  </defs>
  <g id="Group_30" data-name="Group 30" transform="translate(-60 -291)">
    <circle id="Ellipse_4" data-name="Ellipse 4" cx="22" cy="22" r="22" transform="translate(60 291)" fill="url(#radial-gradient)"/>
    <g id="beer" transform="translate(67.38 284.883)">
      <g id="Group_2" data-name="Group 2" transform="translate(0 19.46)">
        <g id="Group_1" data-name="Group 1" transform="translate(0)">
          <path id="Path_1" data-name="Path 1" d="M29.2,145.359l-.595-3.374a2.573,2.573,0,0,0-2.977-2.084l-.844.149-.08-.451a3.427,3.427,0,0,0-2.8-6,3.278,3.278,0,0,0-.766.235,4.355,4.355,0,0,0-3.806-1.178,4.277,4.277,0,0,0-2.711,1.7,4.24,4.24,0,0,0-2.718-1.7,4.288,4.288,0,0,0-3.759,1.187,3.733,3.733,0,0,0-.813-.244,3.427,3.427,0,0,0-2.8,6l-.08.451-.844-.149a2.568,2.568,0,0,0-2.977,2.084L.04,145.359a2.568,2.568,0,0,0,2.084,2.977l.844.149-.149.844A2.573,2.573,0,0,0,4.9,152.305l6.8,1.19a2.567,2.567,0,0,0,2.91-1.8,2.572,2.572,0,0,0,2.909,1.8l6.807-1.19a2.573,2.573,0,0,0,2.084-2.977l-.149-.844.843-.149A2.573,2.573,0,0,0,29.2,145.359ZM3.265,146.8l-.844-.149a.856.856,0,0,1-.695-.992l.595-3.374a.858.858,0,0,1,.992-.695l.844.149ZM5.05,136.675a1.715,1.715,0,0,1,1.985-1.39,1.905,1.905,0,0,1,.789.332.857.857,0,0,0,1.225-.2,2.575,2.575,0,0,1,2.558-1.08,2.539,2.539,0,0,1,1.468.821,3.431,3.431,0,0,0-2.441,3.892,3.491,3.491,0,0,0,.08.348,2.557,2.557,0,0,1-1.6-.986.857.857,0,0,0-1.233-.14,1.82,1.82,0,0,1-1.447.383A1.712,1.712,0,0,1,5.05,136.675ZM13,151.113a.858.858,0,0,1-.994.695l-6.8-1.19a.858.858,0,0,1-.695-.992l1.487-8.436h0l.149-.843a3.537,3.537,0,0,0,2.148-.306,4.24,4.24,0,0,0,2.865,1.115,4.165,4.165,0,0,0,.671-.055,3.418,3.418,0,0,0,1.011.58l.913,5.175Zm-.677-12.356a1.715,1.715,0,0,1,1.39-1.985,1.689,1.689,0,0,1,.8.061.857.857,0,0,0,1.084-.6,2.575,2.575,0,0,1,2.035-1.89,2.658,2.658,0,0,1,2.616,1.08.857.857,0,0,0,1.225.2,1.689,1.689,0,0,1,.732-.332,1.713,1.713,0,1,1-.8,2.991.857.857,0,0,0-1.233.14,2.7,2.7,0,0,1-1.652.986,2.558,2.558,0,0,1-1.836-.381.857.857,0,0,0-1.206.29,1.7,1.7,0,0,1-3.16-.555Zm11.717,11.861-6.807,1.19a.858.858,0,0,1-.992-.695L14.6,141.834a3.39,3.39,0,0,0,1.864-1,4.239,4.239,0,0,0,2.354.257A4.452,4.452,0,0,0,21,140.04a3.39,3.39,0,0,0,2.1.306l1.636,9.279A.857.857,0,0,1,24.039,150.618Zm2.778-3.969-.843.149-.892-5.061.843-.149a.858.858,0,0,1,.992.695l.595,3.374A.857.857,0,0,1,26.817,146.649Z" transform="translate(0 -132.588)" fill="#fff"/>
        </g>
      </g>
      <g id="Group_4" data-name="Group 4" transform="translate(13.763 12.609)">
        <g id="Group_3" data-name="Group 3" transform="translate(0 0)">
          <path id="Path_2" data-name="Path 2" d="M241.859,12.609a.857.857,0,0,0-.857.857v1.713a.857.857,0,1,0,1.713,0V13.466A.857.857,0,0,0,241.859,12.609Z" transform="translate(-241.002 -12.609)" fill="#fff"/>
        </g>
      </g>
      <g id="Group_6" data-name="Group 6" transform="translate(16.583 14.573)">
        <g id="Group_5" data-name="Group 5">
          <path id="Path_3" data-name="Path 3" d="M293.069,47.252a.856.856,0,0,0-1.211,0l-1.211,1.211a.857.857,0,1,0,1.211,1.211l1.211-1.211A.857.857,0,0,0,293.069,47.252Z" transform="translate(-290.395 -47.002)" fill="#fff"/>
        </g>
      </g>
      <g id="Group_8" data-name="Group 8" transform="translate(9.731 14.573)">
        <g id="Group_7" data-name="Group 7">
          <path id="Path_4" data-name="Path 4" d="M173.069,48.464l-1.211-1.211a.857.857,0,0,0-1.211,1.211l1.211,1.211a.857.857,0,0,0,1.211-1.211Z" transform="translate(-170.396 -47.002)" fill="#fff"/>
        </g>
      </g>
    </g>
  </g>
</svg>
