<svg xmlns="http://www.w3.org/2000/svg" width="47" height="47" viewBox="0 0 47 47">
  <g id="plan-card-invite" transform="translate(-979 -675)">
    <rect id="Rectangle_23" data-name="Rectangle 23" width="47" height="47" rx="23.5" transform="translate(979 675)" fill="#f1fbff"/>
    <g id="Layer_2" data-name="Layer 2" transform="translate(994 689)">
      <g id="Layer_1" data-name="Layer 1">
        <path id="Path_45" data-name="Path 45" d="M10.586,20H3.125A3.129,3.129,0,0,1,0,16.875V6.289A3.129,3.129,0,0,1,3.125,3.164h7.461a3.129,3.129,0,0,1,3.125,3.125V16.875A3.129,3.129,0,0,1,10.586,20ZM3.125,4.727A1.564,1.564,0,0,0,1.562,6.289V16.875a1.564,1.564,0,0,0,1.562,1.562h7.461a1.564,1.564,0,0,0,1.562-1.562V6.289a1.564,1.564,0,0,0-1.562-1.562Zm13.711,10.2V3.125A3.129,3.129,0,0,0,13.711,0H5.039a.781.781,0,0,0,0,1.562h8.672a1.564,1.564,0,0,1,1.562,1.562v11.8a.781.781,0,1,0,1.562,0Z" fill="#5f707f"/>
      </g>
    </g>
  </g>
</svg>
