<svg xmlns="http://www.w3.org/2000/svg" xmlns:xlink="http://www.w3.org/1999/xlink" width="45" height="46" viewBox="0 0 45 46">
  <defs>
    <radialGradient id="radial-gradient" cx="-0.178" cy="0.12" r="1.908" gradientTransform="translate(0.037 0.108) rotate(30.813)" gradientUnits="objectBoundingBox">
      <stop offset="0" stop-color="#ffee21"/>
      <stop offset="1" stop-color="#ff2f27"/>
    </radialGradient>
  </defs>
  <g id="plan-card-icn" transform="translate(0 0.167)">
    <ellipse id="Ellipse_4" data-name="Ellipse 4" cx="22.5" cy="23" rx="22.5" ry="23" transform="translate(0 -0.167)" fill="url(#radial-gradient)"/>
    <g id="beer" transform="translate(7.614 6.697)">
      <g id="Group_2" data-name="Group 2" transform="translate(0 7.068)">
        <g id="Group_1" data-name="Group 1" transform="translate(0)">
          <path id="Path_1" data-name="Path 1" d="M30.12,145.762l-.614-3.481a2.654,2.654,0,0,0-3.071-2.15l-.87.153-.082-.466A3.535,3.535,0,0,0,22.6,133.63a3.381,3.381,0,0,0-.79.242,4.492,4.492,0,0,0-3.926-1.215,4.412,4.412,0,0,0-2.8,1.753,4.374,4.374,0,0,0-2.8-1.753A4.423,4.423,0,0,0,8.4,133.881a3.851,3.851,0,0,0-.839-.252,3.535,3.535,0,0,0-2.886,6.189l-.082.466-.87-.153a2.649,2.649,0,0,0-3.071,2.15l-.614,3.481a2.649,2.649,0,0,0,2.15,3.071l.87.153-.153.87a2.654,2.654,0,0,0,2.151,3.071l7.019,1.227a2.648,2.648,0,0,0,3-1.86,2.654,2.654,0,0,0,3,1.86l7.022-1.228a2.654,2.654,0,0,0,2.15-3.071l-.153-.87.87-.153A2.654,2.654,0,0,0,30.12,145.762ZM3.368,147.246l-.87-.153a.883.883,0,0,1-.717-1.024l.614-3.481a.885.885,0,0,1,1.024-.717l.87.153ZM5.209,136.8a1.769,1.769,0,0,1,2.047-1.434,1.966,1.966,0,0,1,.814.342.884.884,0,0,0,1.263-.2,2.656,2.656,0,0,1,2.639-1.114,2.619,2.619,0,0,1,1.514.847,3.539,3.539,0,0,0-2.518,4.015,3.6,3.6,0,0,0,.083.359A2.638,2.638,0,0,1,9.407,138.6a.884.884,0,0,0-1.272-.145,1.877,1.877,0,0,1-1.493.395A1.766,1.766,0,0,1,5.209,136.8Zm8.2,14.894a.885.885,0,0,1-1.025.717l-7.019-1.227a.885.885,0,0,1-.717-1.024l1.534-8.7h0l.153-.87a3.648,3.648,0,0,0,2.216-.316,4.374,4.374,0,0,0,2.956,1.15,4.3,4.3,0,0,0,.692-.057,3.526,3.526,0,0,0,1.042.6l.941,5.339Zm-.7-12.746a1.769,1.769,0,0,1,1.434-2.047,1.743,1.743,0,0,1,.827.063.884.884,0,0,0,1.118-.621,2.656,2.656,0,0,1,2.1-1.949,2.742,2.742,0,0,1,2.7,1.114.884.884,0,0,0,1.263.2,1.743,1.743,0,0,1,.755-.342,1.767,1.767,0,1,1-.82,3.086.884.884,0,0,0-1.271.145,2.783,2.783,0,0,1-1.7,1.017,2.639,2.639,0,0,1-1.894-.393.884.884,0,0,0-1.244.3,1.757,1.757,0,0,1-3.26-.572ZM24.8,151.187l-7.022,1.228a.885.885,0,0,1-1.024-.717l-1.688-9.572a3.5,3.5,0,0,0,1.923-1.033,4.373,4.373,0,0,0,2.428.266,4.593,4.593,0,0,0,2.244-1.083,3.5,3.5,0,0,0,2.166.316l1.688,9.572A.884.884,0,0,1,24.8,151.187Zm2.866-4.094-.87.153-.921-5.221.87-.153a.885.885,0,0,1,1.024.717l.614,3.481A.885.885,0,0,1,27.663,147.093Z" transform="translate(0 -132.588)" fill="#fff"/>
        </g>
      </g>
      <g id="Group_4" data-name="Group 4" transform="translate(14.197 0)">
        <g id="Group_3" data-name="Group 3" transform="translate(0 0)">
          <path id="Path_2" data-name="Path 2" d="M241.886,12.609a.884.884,0,0,0-.884.884V15.26a.884.884,0,1,0,1.767,0V13.493A.884.884,0,0,0,241.886,12.609Z" transform="translate(-241.002 -12.609)" fill="#fff"/>
        </g>
      </g>
      <g id="Group_6" data-name="Group 6" transform="translate(17.106 2.026)">
        <g id="Group_5" data-name="Group 5">
          <path id="Path_3" data-name="Path 3" d="M293.153,47.26a.884.884,0,0,0-1.25,0l-1.25,1.25a.884.884,0,1,0,1.25,1.25l1.25-1.25A.884.884,0,0,0,293.153,47.26Z" transform="translate(-290.395 -47.001)" fill="#fff"/>
        </g>
      </g>
      <g id="Group_8" data-name="Group 8" transform="translate(10.038 2.026)">
        <g id="Group_7" data-name="Group 7">
          <path id="Path_4" data-name="Path 4" d="M173.153,48.51l-1.25-1.25a.884.884,0,0,0-1.25,1.25l1.25,1.25a.884.884,0,1,0,1.25-1.25Z" transform="translate(-170.395 -47.002)" fill="#fff"/>
        </g>
      </g>
    </g>
  </g>
</svg>
