<?xml version="1.0" encoding="UTF-8"?> <svg xmlns="http://www.w3.org/2000/svg" width="74.261" height="45.978" viewBox="0 0 74.261 45.978"><g id="Group_11" data-name="Group 11" transform="translate(-496.434 -277.159)"><path id="Path_237" data-name="Path 237" d="M512.405,291.736q0-4.54-5.3-6.412l-2.47-.877q-1.514-.557-1.513-1.513a1.153,1.153,0,0,1,.418-.916,1.817,1.817,0,0,1,1.215-.358,14.211,14.211,0,0,1,5.576,1.513,4.142,4.142,0,0,0,1.275-1.892,5.688,5.688,0,0,0,.438-2.45,16.165,16.165,0,0,0-3.465-1.175,16.948,16.948,0,0,0-3.864-.5,8.432,8.432,0,0,0-5.636,1.772,5.965,5.965,0,0,0-2.091,4.8q0,4.143,4.979,5.974l2.191.837q1.831.6,1.832,1.792a1.154,1.154,0,0,1-.6,1.016,3.21,3.21,0,0,1-1.713.378,12.325,12.325,0,0,1-5.536-1.673,6.185,6.185,0,0,0-1.175,1.952,6.8,6.8,0,0,0-.537,2.27,15.081,15.081,0,0,0,7.527,1.952,9.8,9.8,0,0,0,6.253-1.752A5.751,5.751,0,0,0,512.405,291.736Z" transform="translate(0)" fill="#fff"></path><path id="Path_238" data-name="Path 238" d="M562.051,295.381a9.422,9.422,0,0,0,1.792-3.325,14.349,14.349,0,0,0,.617-4.342q0-5.337-2.868-8.2a8.779,8.779,0,0,0-6.372-2.35,9.675,9.675,0,0,0-3.943.757,7.718,7.718,0,0,0-2.868,2.15,9.6,9.6,0,0,0-1.752,3.326,15.858,15.858,0,0,0,0,8.623,9.177,9.177,0,0,0,1.772,3.326,8.026,8.026,0,0,0,2.868,2.131,9.54,9.54,0,0,0,3.923.757,9.91,9.91,0,0,0,3.943-.737A7.8,7.8,0,0,0,562.051,295.381Zm-4.564-3.345a2.24,2.24,0,0,1-2.326,1.534,2.345,2.345,0,0,1-1.424-.4,2.545,2.545,0,0,1-.842-1.215,7.807,7.807,0,0,1-.4-2.031q-.1-1.214-.1-2.888a15.788,15.788,0,0,1,.12-2.011,5.87,5.87,0,0,1,.441-1.653,2.9,2.9,0,0,1,.862-1.135,2.265,2.265,0,0,1,1.424-.418,2.183,2.183,0,0,1,2.246,1.494,13.008,13.008,0,0,1,.562,4.361A13.219,13.219,0,0,1,557.487,292.035Z" transform="translate(-31.584)" fill="#fff"></path><path id="Path_239" data-name="Path 239" d="M616.349,297.492a7.8,7.8,0,0,0,2.888-2.111,9.426,9.426,0,0,0,1.792-3.325,14.349,14.349,0,0,0,.617-4.342q0-5.337-2.867-8.2a8.78,8.78,0,0,0-6.373-2.35,9.675,9.675,0,0,0-3.943.757,7.714,7.714,0,0,0-2.867,2.15,9.591,9.591,0,0,0-1.753,3.326,15.858,15.858,0,0,0,0,8.623,9.177,9.177,0,0,0,1.772,3.326,8.026,8.026,0,0,0,2.868,2.131,9.541,9.541,0,0,0,3.923.757A9.908,9.908,0,0,0,616.349,297.492Zm-5.427-4.322a2.543,2.543,0,0,1-.843-1.215,7.79,7.79,0,0,1-.4-2.031q-.1-1.214-.1-2.888a15.845,15.845,0,0,1,.12-2.011,5.872,5.872,0,0,1,.441-1.653,2.9,2.9,0,0,1,.863-1.135,2.264,2.264,0,0,1,1.424-.418,2.183,2.183,0,0,1,2.246,1.494,13.006,13.006,0,0,1,.562,4.361,13.217,13.217,0,0,1-.562,4.361,2.24,2.24,0,0,1-2.326,1.534A2.343,2.343,0,0,1,610.922,293.17Z" transform="translate(-67.979)" fill="#fff"></path><path id="Path_240" data-name="Path 240" d="M547.512,355.311a4.123,4.123,0,0,0,2.41-.677,2.658,2.658,0,0,0,.976-2.35,6.189,6.189,0,0,0-.578-2.689,6.1,6.1,0,0,0-1.633-2.091,7.608,7.608,0,0,0-2.509-1.354,10.216,10.216,0,0,0-3.206-.478,8.672,8.672,0,0,0-3.286.637,7.938,7.938,0,0,0-2.788,1.912,9.434,9.434,0,0,0-1.952,3.226,12.94,12.94,0,0,0-.737,4.58q0,5.138,2.27,7.926a7.937,7.937,0,0,0,6.532,2.788,11.578,11.578,0,0,0,4.3-.837,9.348,9.348,0,0,0,3.425-2.23,6.254,6.254,0,0,0-.358-1.015,6.868,6.868,0,0,0-.558-1.016,5.691,5.691,0,0,0-.7-.856,3.434,3.434,0,0,0-.737-.577,10.562,10.562,0,0,1-2.39,1.274,6.084,6.084,0,0,1-2.031.4,3.533,3.533,0,0,1-1.513-.3,2.507,2.507,0,0,1-1.056-.956,5.14,5.14,0,0,1-.637-1.733,13.617,13.617,0,0,1-.219-2.669,13.248,13.248,0,0,1,.558-4.56,1.974,1.974,0,0,1,1.952-1.374,1.8,1.8,0,0,1,1.792,1.016,8.126,8.126,0,0,1,.478,3.246v.518A9.371,9.371,0,0,0,547.512,355.311Z" transform="translate(-24.042 -43.604)" fill="#fff"></path><path id="Path_241" data-name="Path 241" d="M590.627,337.194a2.416,2.416,0,0,0,3.346,2.907,6.6,6.6,0,0,0,3.027-.6,5.82,5.82,0,0,0,0-4.62,5.563,5.563,0,0,0-2.907-.637,6.157,6.157,0,0,0-2.987.637A5.627,5.627,0,0,0,590.627,337.194Z" transform="translate(-59.948 -36.333)" fill="#fff"></path><path id="Path_242" data-name="Path 242" d="M591.542,356.507h-.876q-.717,0-1.594.059t-1.912.138a8.766,8.766,0,0,0-.239,2.2,7.151,7.151,0,0,0,.239,2.086h.6q1.872,0,1.872,2.284v9.764q.677.118,1.494.177t1.653.059q.837,0,1.633-.059t1.473-.177V361.192a4.876,4.876,0,0,0-1.155-3.425A4.107,4.107,0,0,0,591.542,356.507Z" transform="translate(-57.59 -50.5)" fill="#fff"></path><path id="Path_243" data-name="Path 243" d="M635.962,360.9v-8.085a7.546,7.546,0,0,0-.577-3.087,5.768,5.768,0,0,0-1.554-2.111,6.467,6.467,0,0,0-2.27-1.215,9.106,9.106,0,0,0-2.688-.4,18.786,18.786,0,0,0-2.151.139q-1.195.14-2.43.378t-2.41.558q-1.175.319-2.131.677a7.935,7.935,0,0,0,1.513,4.341,23.4,23.4,0,0,1,5.855-1.314,2.267,2.267,0,0,1,2.589,2.54v.766q-.518-.039-1.215-.06t-1.613-.02a10.442,10.442,0,0,0-3.067.438,7.511,7.511,0,0,0-2.51,1.294,6.018,6.018,0,0,0-1.692,2.151,6.9,6.9,0,0,0-.617,3.007,6.646,6.646,0,0,0,.4,2.29,5.48,5.48,0,0,0,1.195,1.932,5.852,5.852,0,0,0,1.952,1.334,6.8,6.8,0,0,0,2.708.5,8.141,8.141,0,0,0,5.616-2.39,5.249,5.249,0,0,0,4.3,2.111,4.556,4.556,0,0,0,1.155-1.394,6.693,6.693,0,0,0,.757-1.792A2.9,2.9,0,0,1,635.962,360.9Zm-6.253.319a4.138,4.138,0,0,1-2.509,1.155q-2.151,0-2.151-1.872a2.236,2.236,0,0,1,2.509-2.549c.185,0,.458.007.817.02s.8.033,1.334.06Z" transform="translate(-78.003 -43.814)" fill="#fff"></path><path id="Path_244" data-name="Path 244" d="M683.832,346.085h-1.075q-1.753,0-1.752-1.869V325.089a4.333,4.333,0,0,0-.757-2.9,3.433,3.433,0,0,0-2.629-.835h-2.43l-.239.279v23.7a6.41,6.41,0,0,0,1.135,4.2,4.809,4.809,0,0,0,3.844,1.334,26.035,26.035,0,0,0,4.262-.4,7.644,7.644,0,0,0,.12-1.727A7.776,7.776,0,0,0,683.832,346.085Z" transform="translate(-113.615 -28.126)" fill="#fff"></path></g></svg> 