<svg xmlns="http://www.w3.org/2000/svg" xmlns:xlink="http://www.w3.org/1999/xlink" viewBox="0 0 204.26 126.47"><defs><style>.cls-1{fill:url(#radial-gradient);}</style><radialGradient id="radial-gradient" cx="74.43" cy="-39.83" r="240.08" gradientUnits="userSpaceOnUse"><stop offset="0" stop-color="#16d3ff"/><stop offset="1" stop-color="#9727ff"/></radialGradient></defs><g id="Layer_2" data-name="Layer 2"><g id="Layer_1-2" data-name="Layer 1"><path class="cls-1" d="M43.93,40.1q0-12.5-14.57-17.64l-6.79-2.41q-4.17-1.53-4.17-4.17a3.17,3.17,0,0,1,1.15-2.51,5,5,0,0,1,3.35-1q6.13,0,15.33,4.16a11.35,11.35,0,0,0,3.51-5.2,15.55,15.55,0,0,0,1.2-6.74,44.27,44.27,0,0,0-9.53-3.23A46.74,46.74,0,0,0,22.79,0Q13,0,7.29,4.88T1.53,18.08q0,11.39,13.7,16.43l6,2.3q5,1.65,5,4.93a3.17,3.17,0,0,1-1.64,2.79,8.8,8.8,0,0,1-4.71,1q-6.46,0-15.23-4.6a17.11,17.11,0,0,0-3.23,5.37A18.6,18.6,0,0,0,0,52.59,41.58,41.58,0,0,0,20.71,58q11.16,0,17.2-4.82A15.82,15.82,0,0,0,43.93,40.1Z"/><path class="cls-1" d="M93.61,50.12A25.79,25.79,0,0,0,98.54,41,39.54,39.54,0,0,0,100.24,29q0-14.67-7.89-22.57Q85.68,0,74.82,0A26.54,26.54,0,0,0,64,2.08,21.24,21.24,0,0,0,56.09,8a26.33,26.33,0,0,0-4.82,9.14A40.07,40.07,0,0,0,49.63,29a40.09,40.09,0,0,0,1.64,11.83A25.38,25.38,0,0,0,56.14,50,22.09,22.09,0,0,0,64,55.87,26.19,26.19,0,0,0,74.82,58a27.27,27.27,0,0,0,10.85-2A21.39,21.39,0,0,0,93.61,50.12Zm-12.55-9.2c-1,2.81-3.17,4.22-6.4,4.22A6.46,6.46,0,0,1,70.74,44a7,7,0,0,1-2.32-3.34,21.41,21.41,0,0,1-1.1-5.59c-.18-2.23-.27-4.87-.27-7.94a41.74,41.74,0,0,1,.33-5.53,16,16,0,0,1,1.21-4.55A8,8,0,0,1,71,14a6.21,6.21,0,0,1,3.92-1.15,6,6,0,0,1,6.18,4.11q1.55,4.09,1.54,12T81.06,40.92Z"/><path class="cls-1" d="M142.85,55.93a21.51,21.51,0,0,0,8-5.81A26.1,26.1,0,0,0,155.73,41,39.55,39.55,0,0,0,157.42,29q0-14.67-7.88-22.57Q142.85,0,132,0a26.58,26.58,0,0,0-10.85,2.08A21.13,21.13,0,0,0,113.28,8a26.34,26.34,0,0,0-4.83,9.14A40.4,40.4,0,0,0,106.81,29a40.42,40.42,0,0,0,1.64,11.83A25.24,25.24,0,0,0,113.33,50a21.92,21.92,0,0,0,7.89,5.86A26.16,26.16,0,0,0,132,58,27.22,27.22,0,0,0,142.85,55.93ZM127.93,44a6.94,6.94,0,0,1-2.32-3.34,21.41,21.41,0,0,1-1.1-5.59c-.19-2.23-.28-4.87-.28-7.94a43.51,43.51,0,0,1,.33-5.53,16.35,16.35,0,0,1,1.21-4.55A7.9,7.9,0,0,1,128.15,14a6.18,6.18,0,0,1,3.91-1.15,6,6,0,0,1,6.18,4.11q1.55,4.09,1.55,12t-1.55,12q-1.55,4.21-6.4,4.22A6.43,6.43,0,0,1,127.93,44Z"/><path class="cls-1" d="M74.37,95A11.33,11.33,0,0,0,81,93.16q2.69-1.86,2.69-6.46A16.61,16.61,0,0,0,77.6,73.55a21,21,0,0,0-6.9-3.72,28,28,0,0,0-8.82-1.32,23.82,23.82,0,0,0-9,1.76,21.77,21.77,0,0,0-7.67,5.25A26,26,0,0,0,39.8,84.4a35.66,35.66,0,0,0-2,12.6q0,14.13,6.24,21.8t18,7.67a32,32,0,0,0,11.83-2.3A25.78,25.78,0,0,0,83.24,118a16.8,16.8,0,0,0-1-2.79,18.44,18.44,0,0,0-1.53-2.8,15.45,15.45,0,0,0-1.92-2.35,9.39,9.39,0,0,0-2-1.59A28.5,28.5,0,0,1,70.2,112a16.48,16.48,0,0,1-5.58,1.1,9.73,9.73,0,0,1-4.17-.82,7,7,0,0,1-2.9-2.63,14.06,14.06,0,0,1-1.75-4.77,36.81,36.81,0,0,1-.61-7.34q0-8.76,1.54-12.54a5.43,5.43,0,0,1,5.37-3.78q3.62,0,4.93,2.79c.87,1.87,1.31,4.84,1.31,8.93v1.43A25.81,25.81,0,0,0,74.37,95Z"/><path class="cls-1" d="M94.19,65.19a15.41,15.41,0,0,0,1.32,6.36q2.73,1.64,7.89,1.64a18.21,18.21,0,0,0,8.32-1.64,16,16,0,0,0,0-12.71q-2.85-1.76-8-1.75a16.9,16.9,0,0,0-8.22,1.75A15.4,15.4,0,0,0,94.19,65.19Z"/><path class="cls-1" d="M103.2,79.35h-2.41c-1.32,0-2.78.05-4.39.16l-5.25.38A24,24,0,0,0,90.49,86a19.57,19.57,0,0,0,.66,5.74h1.64c3.43,0,5.15,2.1,5.15,6.28v26.86a40.74,40.74,0,0,0,4.11.49c1.49.11,3,.16,4.54.16s3,0,4.49-.16,2.81-.27,4.06-.49V92.23q0-6-3.18-9.42T103.2,79.35Z"/><path class="cls-1" d="M169.23,109.81V87.57a20.75,20.75,0,0,0-1.59-8.49,15.86,15.86,0,0,0-4.27-5.8,17.66,17.66,0,0,0-6.25-3.34,25,25,0,0,0-7.39-1.1,53,53,0,0,0-5.92.38q-3.28.39-6.68,1c-2.26.43-4.47,1-6.63,1.53s-4.1,1.2-5.86,1.86c.59,5.41,2,9.39,4.17,11.94Q140.3,82,144.91,82,152,82,152,89v2.1c-.95-.07-2.06-.13-3.34-.16s-2.76-.06-4.44-.06a28.49,28.49,0,0,0-8.43,1.21,20.68,20.68,0,0,0-6.91,3.56,16.54,16.54,0,0,0-4.65,5.91,19.06,19.06,0,0,0-1.7,8.27,18.27,18.27,0,0,0,1.1,6.3,15.16,15.16,0,0,0,3.28,5.32,16.25,16.25,0,0,0,5.37,3.67,18.76,18.76,0,0,0,7.45,1.37q8.33,0,15.45-6.58,4.15,5.6,11.83,5.81a12.57,12.57,0,0,0,3.18-3.84,18.56,18.56,0,0,0,2.08-4.92Q169.23,114.85,169.23,109.81Zm-17.2.88q-3.84,3.18-6.9,3.18-5.92,0-5.92-5.15,0-7,6.9-7c.51,0,1.26,0,2.25.05s2.21.09,3.67.17Z"/><path class="cls-1" d="M203,112.22h-3c-3.22,0-4.82-1.71-4.82-5.14V54.47c0-3.79-.7-6.45-2.08-8s-3.8-2.3-7.23-2.3h-6.69l-.65.77v65.18q0,7.89,3.12,11.56t10.57,3.67a72.21,72.21,0,0,0,11.72-1.1,21,21,0,0,0,.33-4.75A21.57,21.57,0,0,0,203,112.22Z"/></g></g></svg>