<svg xmlns="http://www.w3.org/2000/svg" viewBox="0 0 306.44 307.42"><g id="Layer_2" data-name="Layer 2"><g id="Layer_1-2" data-name="Layer 1"><path d="M156.4,216.49a220.53,220.53,0,0,0,21.83,8.07,52.48,52.48,0,0,0,24.11,1.51c7.36-1.1,22.65-9.26,25.84-18.2v0c3.19-8.94,3.18-16.67,2.23-18.26s-3.5-2.56-7.33-4.47S200.43,174,196.92,172.72s-6.07-1.91-8.62,1.92-9.89,12.4-12.12,15-4.5,2.93-8.29,1-16.16-6-30.79-19c-11.38-10.15-19.07-22.71-21.3-26.52s0-5.7,1.68-7.81c4-5,8.3-10.53,9.57-13.09a7,7,0,0,0-.32-6.71c-1-1.91-8.61-20.75-11.8-28.41-3.11-7.46-6.38-6.44-8.61-6.57s-4.79-.13-7.34-.13a14,14,0,0,0-10.21,4.79c-3.51,3.82-13.4,13.08-13.4,31.92S89.08,156.16,91,158.71,118,199.92,156.4,216.49Z"/><path d="M153.16,306.45h.07c84.44,0,153.18-68.71,153.21-153.17v-.07A153.2,153.2,0,0,0,153.23,0C68.8,0,0,68.7,0,153.16a152.89,152.89,0,0,0,20.46,76.57l-20,73c1.55,1.57,3.11,3.13,4.71,4.65l74.77-19.61A153.16,153.16,0,0,0,153.16,306.45ZM45.34,220.92a127,127,0,0,1-19.47-67.75C25.9,83,83,25.87,153.28,25.87l0,0h0a127.33,127.33,0,0,1,127.26,127.4c0,70.2-57.16,127.31-127.35,127.31h-.05a127.2,127.2,0,0,1-64.82-17.75l-4.65-2.75-48.2,12.64,12.87-47Z"/></g></g></svg>
